<?xml version="1.0" ?><svg enable-background="new 0 0 211.405 175.0664" id="twiter" version="1.1" viewBox="0 0 211.405 175.0664" xml:space="preserve" xmlns="http://www.w3.org/2000/svg" xmlns:xlink="http://www.w3.org/1999/xlink"><path d="M209.647,20.4548c-1.416-0.9588-3.2908-0.91-4.658,0.1232c-1.7952,1.3612-4.7168,2.4412-7.8616,3.2732  c8.1896-9.1756,8.3656-15.3024,8.2776-16.7128c-0.092-1.4548-0.9688-2.746-2.2892-3.3672c-1.324-0.6248-2.8748-0.4724-4.0548,0.3828  c-9.2108,6.6956-18.3864,8.1096-23.8436,8.252C166.8426,4.3924,155.9634,0,144.3894,0c-24.7832,0-44.9456,20.4316-44.9456,45.5448  c0,2.158,0.1504,4.3164,0.4512,6.4512c-42.9512-0.4864-77.83-41.6408-78.1892-42.0704c-0.838-1.002-2.1132-1.5372-3.416-1.422  C16.987,8.6172,15.821,9.3572,15.1686,10.49c-12.3612,21.4436-4.09,40.2776,3.4708,51.0608c-1.338-0.7132-2.422-1.416-3.0684-1.8928  c-1.2012-0.8944-2.8048-1.0428-4.1544-0.3808c-1.3476,0.664-2.2088,2.0236-2.2344,3.5252  c-0.334,20.432,9.502,32.1368,18.748,38.6076c-1.2324-0.1172-2.4844,0.3416-3.3396,1.2716  c-0.9612,1.0448-1.2988,2.5196-0.8848,3.8768c6.3868,20.9084,22.072,28.0116,32.0528,30.422  c-20.5216,15.9744-50.7188,10.834-51.0528,10.7752c-1.8224-0.322-3.6252,0.6368-4.3672,2.3284  c-0.7424,1.6892-0.2344,3.6696,1.2344,4.7888c21.66,16.5312,47.5664,20.1936,66.2812,20.1936  c14.1544-0.002,24.1992-2.098,25.16-2.3068c94.7912-22.4628,97.4592-109.2912,97.2424-123.5216  c17.7948-16.5488,20.576-22.8516,21.0056-24.41C211.7154,23.1736,211.067,21.416,209.647,20.4548z M183.4946,44.5956  c-0.8904,0.8204-1.3612,2.002-1.2812,3.2108c0.252,3.842,5.0996,94.3868-90.9688,117.1524  c-0.4352,0.092-38.6228,8.0604-71.7284-8.34c13.9864-0.3884,34.0432-4.0524,48.0156-19.74  c1.0548-1.1816,1.3108-2.8752,0.6544-4.3164c-0.6484-1.4276-2.0744-2.344-3.6408-2.344c-0.0136,0-0.0272,0-0.0408,0  c-0.1992,0.1272-21.2052-0.0232-30.8204-20.0056c3.8732,0.2188,8.6484-0.0196,12.4512-1.7716  c1.5664-0.7228,2.492-2.3672,2.2988-4.082c-0.1932-1.7128-1.4628-3.1092-3.1504-3.4648  c-1.076-0.2264-24.4588-5.4552-27.7304-30.9648c3.5488,1.5508,8.086,2.8204,12.578,2.1348c1.5432-0.2324,2.8068-1.342,3.2424-2.84  c0.4356-1.498-0.0412-3.1152-1.2188-4.1388c-1-0.8708-22.9612-20.3884-12.5488-45.5584  c11.3028,11.8592,44.7852,42.6816,85.3476,40.3516c1.1896-0.0684,2.2872-0.666,2.994-1.6272  c0.7052-0.9608,0.9456-2.1852,0.6544-3.3416c-0.7676-3.0588-1.1584-6.2108-1.1584-9.3652C107.4438,24.8416,124.0182,8,144.3894,8  c9.9648,0,19.3124,3.9764,26.3164,11.1992c0.7364,0.7596,1.746,1.1972,2.8028,1.2148c4.238,0.0584,11.2088-0.4396,19.08-3.596  c-2.2716,2.8264-5.6076,6.2168-10.5156,10.0704c-1.3868,1.09-1.8964,2.9612-1.254,4.6036c0.6444,1.6464,2.3068,2.6856,4.0448,2.5292  c0.9316-0.074,5.6856-0.494,11.0568-1.656C192.9946,35.5212,188.983,39.5468,183.4946,44.5956z"/></svg>