<svg xmlns="http://www.w3.org/2000/svg" width="180" height="148" fill="none" viewBox="0 0 180 148">
  <g clip-path="url(#a)">
    <g filter="url(#b)" opacity=".3">
      <path fill="#1D9DF2" d="M185.459 109.407a16.7 16.7 0 0 0 7.307-9.222 33.205 33.205 0 0 1-10.552 4.044 16.612 16.612 0 0 0-19.956-3.252c-6.622 3.554-10.052 11.116-8.374 18.459a47.133 47.133 0 0 1-34.246-17.417c-4.403 7.619-2.153 17.358 5.142 22.257a16.517 16.517 0 0 1-7.523-2.09v.21c.001 7.936 5.577 14.772 13.332 16.345a16.596 16.596 0 0 1-7.505.287c2.181 6.787 8.417 11.437 15.524 11.576a33.277 33.277 0 0 1-20.639 7.135 33.532 33.532 0 0 1-3.969-.229 46.934 46.934 0 0 0 25.476 7.489 46.885 46.885 0 0 0 33.528-13.797 47.181 47.181 0 0 0 13.752-33.634c0-.723-.017-1.441-.05-2.156a33.817 33.817 0 0 0 8.294-8.631 33.157 33.157 0 0 1-9.541 2.626z"/>
    </g>
    <rect width="179" height="147" x=".5" y=".5" fill="url(#c)" stroke="url(#d)" rx="11.5"/>
    <g clip-path="url(#e)">
      <rect width="32" height="32" x="16" y="16" fill="#1D9DF2" rx="16"/>
      <path fill="#fff" d="M32 25a5 5 0 1 1 0 10 5 5 0 0 1 0-10zm-9 21a8 8 0 0 1 8-8h2a8 8 0 0 1 8 8v5H23v-5z"/>
    </g>
    <path fill="#1A4774" fill-rule="evenodd" d="M56 20a3 3 0 0 1 3-3h102a3 3 0 1 1 0 6H59a3 3 0 0 1-3-3zm0 12a3 3 0 0 1 3-3h102a3 3 0 1 1 0 6H59a3 3 0 0 1-3-3zm3 9a3 3 0 1 0 0 6h59a3 3 0 1 0 0-6H59z" clip-rule="evenodd"/>
    <path fill="#1A4774" d="M56 64a4 4 0 0 1 4-4h32v36H60a4 4 0 0 1-4-4V64z"/>
    <rect width="106" height="34" x="57" y="61" stroke="#1A4774" stroke-width="2" rx="3"/>
    <circle cx="122" cy="120" r="14" fill="#1D9DF2" opacity=".2"/>
    <path fill="#1D9DF2" fill-rule="evenodd" d="M117.293 117.707a.999.999 0 0 0 1.414 0l2.293-2.293V121a1 1 0 0 0 2 0v-5.586l2.293 2.293a.999.999 0 1 0 1.414-1.414l-4-4a.999.999 0 0 0-1.414 0l-4 4a.999.999 0 0 0 0 1.414zM117 121a1 1 0 0 0-2 0v4a1 1 0 0 0 1 1h12a1 1 0 0 0 1-1v-4a1 1 0 0 0-2 0v3h-10v-3z" clip-rule="evenodd"/>
    <circle cx="88" cy="120" r="8" fill="#1D9DF2" opacity=".1"/>
    <circle cx="60" cy="120" r="8" fill="#1D9DF2" opacity=".1"/>
    <circle cx="32" cy="120" r="8" fill="#1D9DF2" opacity=".1"/>
    <circle cx="156" cy="120" r="8" fill="#1D9DF2" opacity=".1"/>
    <path fill="#fff" fill-rule="evenodd" d="M131.33 137.38c-.284-.359-.629-1.093-1.243-1.984-.348-.504-1.211-1.453-1.468-1.935-.223-.426-.199-.617-.146-.97.094-.628.738-1.117 1.425-1.051.519.049.959.392 1.355.716.239.195.533.574.71.788.163.196.203.277.377.509.23.307.302.459.214.121-.071-.496-.187-1.343-.355-2.092-.128-.568-.159-.657-.281-1.093-.129-.464-.195-.789-.316-1.281-.084-.348-.235-1.059-.276-1.459-.057-.547-.087-1.439.264-1.849.275-.321.906-.418 1.297-.22.512.259.803 1.003.936 1.3.239.534.387 1.151.516 1.961.164 1.031.466 2.462.476 2.763.024-.369-.068-1.146-.004-1.5.058-.321.328-.694.666-.795.286-.085.621-.116.916-.055.313.064.643.288.766.499.362.624.369 1.899.384 1.831.086-.376.071-1.229.284-1.584.14-.234.497-.445.687-.479.294-.052.655-.068.964-.008.249.049.586.345.677.487.218.344.342 1.317.379 1.658.015.141.074-.392.293-.736.406-.639 1.843-.763 1.898.639.025.654.02.624.02 1.064 0 .517-.012.828-.04 1.202-.031.4-.117 1.304-.242 1.742-.086.301-.371.978-.652 1.384 0 0-1.074 1.25-1.191 1.813-.118.562-.079.566-.102.965-.023.398.121.922.121.922s-.802.104-1.234.035c0 0-1.771 0-2.733.011-.744.02-2.054.031-3.139.02 0 0 .185-1.011-.227-1.358-.305-.259-.83-.784-1.144-1.06l-.832-.921z" clip-rule="evenodd"/>
  </g>
  <defs>
    <linearGradient id="c" x1="0" x2="59.763" y1="0" y2="186.524" gradientUnits="userSpaceOnUse">
      <stop stop-color="#003152"/>
      <stop offset="1" stop-color="#002D4B" stop-opacity="0"/>
    </linearGradient>
    <linearGradient id="d" x1="0" x2="180" y1="0" y2="148" gradientUnits="userSpaceOnUse">
      <stop stop-color="#3DB1FF"/>
      <stop offset=".661" stop-color="#1D9DF2" stop-opacity=".18"/>
    </linearGradient>
    <clipPath id="a">
      <rect width="180" height="148" fill="#fff" rx="12"/>
    </clipPath>
    <clipPath id="e">
      <rect width="32" height="32" x="16" y="16" fill="#fff" rx="16"/>
    </clipPath>
    <filter id="b" width="129" height="114" x="90" y="75" color-interpolation-filters="sRGB" filterUnits="userSpaceOnUse">
      <feFlood flood-opacity="0" result="BackgroundImageFix"/>
      <feBlend in="SourceGraphic" in2="BackgroundImageFix" result="shape"/>
      <feGaussianBlur result="effect1_foregroundBlur_1540_36677" stdDeviation="12"/>
    </filter>
  </defs>
</svg>
