<svg xmlns="http://www.w3.org/2000/svg" width="180" height="148" fill="none" viewBox="0 0 180 148">
  <g filter="url(#a)">
    <g clip-path="url(#b)">
      <g filter="url(#c)" opacity=".3">
        <path fill="#1D9DF2" d="M185.459 109.407a16.7 16.7 0 0 0 7.307-9.222 33.205 33.205 0 0 1-10.552 4.044 16.612 16.612 0 0 0-19.956-3.252c-6.622 3.554-10.052 11.116-8.374 18.459a47.133 47.133 0 0 1-34.246-17.417c-4.403 7.619-2.153 17.358 5.142 22.257a16.517 16.517 0 0 1-7.523-2.09v.21c.001 7.936 5.577 14.772 13.332 16.345a16.596 16.596 0 0 1-7.505.287c2.181 6.787 8.417 11.437 15.524 11.576a33.277 33.277 0 0 1-20.639 7.135 33.532 33.532 0 0 1-3.969-.229 46.934 46.934 0 0 0 25.476 7.489 46.885 46.885 0 0 0 33.528-13.797 47.181 47.181 0 0 0 13.752-33.634c0-.723-.017-1.441-.05-2.156a33.817 33.817 0 0 0 8.294-8.631 33.157 33.157 0 0 1-9.541 2.626z"/>
      </g>
      <rect width="179" height="147" x=".5" y=".5" fill="url(#d)" stroke="url(#e)" rx="11.5"/>
      <g clip-path="url(#f)">
        <rect width="32" height="32" x="16" y="44" fill="#1D9DF2" rx="16"/>
        <path fill="#fff" d="M32 53a5 5 0 1 1 0 10 5 5 0 0 1 0-10zm-9 21a8 8 0 0 1 8-8h2a8 8 0 0 1 8 8v5H23v-5z"/>
      </g>
      <path fill="#1A4774" fill-rule="evenodd" d="M56 48a3 3 0 0 1 3-3h102a3 3 0 1 1 0 6H59a3 3 0 0 1-3-3zm0 12a3 3 0 0 1 3-3h102a3 3 0 1 1 0 6H59a3 3 0 0 1-3-3zm3 9a3 3 0 1 0 0 6h59a3 3 0 1 0 0-6H59z" clip-rule="evenodd"/>
      <path fill="#1978B8" fill-rule="evenodd" d="M21.707 16.707a1 1 0 0 0-1.414-1.414l-4 4a1 1 0 0 0 0 1.414l4 4a1 1 0 0 0 1.414-1.414L19.414 21H29a1 1 0 1 0 0-2h-9.586l2.293-2.293z" clip-rule="evenodd"/>
      <path fill="#1A4774" d="M56 92a4 4 0 0 1 4-4h32v36H60a4 4 0 0 1-4-4V92z"/>
      <rect width="106" height="34" x="57" y="89" stroke="#1A4774" stroke-width="2" rx="3"/>
      <path fill="#1D9DF2" d="M132 20a8 8 0 0 1 8-8h16a8 8 0 0 1 0 16h-16a8 8 0 0 1-8-8z"/>
      <path fill="#fff" fill-rule="evenodd" d="m156.454 35.89-3.314 1.406-1.897-4.468-2.845 2.844V21.427L158.671 31.7h-3.996l1.779 4.19z" clip-rule="evenodd"/>
    </g>
  </g>
  <defs>
    <linearGradient id="d" x1="0" x2="59.763" y1="0" y2="186.524" gradientUnits="userSpaceOnUse">
      <stop stop-color="#003152"/>
      <stop offset="1" stop-color="#002D4B" stop-opacity="0"/>
    </linearGradient>
    <linearGradient id="e" x1="0" x2="180" y1="0" y2="148" gradientUnits="userSpaceOnUse">
      <stop stop-color="#3DB1FF"/>
      <stop offset=".661" stop-color="#1D9DF2" stop-opacity=".18"/>
    </linearGradient>
    <clipPath id="b">
      <rect width="180" height="148" fill="#fff" rx="12"/>
    </clipPath>
    <clipPath id="f">
      <rect width="32" height="32" x="16" y="44" fill="#fff" rx="16"/>
    </clipPath>
    <filter id="a" width="228" height="196" x="-24" y="-24" color-interpolation-filters="sRGB" filterUnits="userSpaceOnUse">
      <feFlood flood-opacity="0" result="BackgroundImageFix"/>
      <feGaussianBlur in="BackgroundImage" stdDeviation="12"/>
      <feComposite in2="SourceAlpha" operator="in" result="effect1_backgroundBlur_1540_36652"/>
      <feBlend in="SourceGraphic" in2="effect1_backgroundBlur_1540_36652" result="shape"/>
    </filter>
    <filter id="c" width="129" height="114" x="90" y="75" color-interpolation-filters="sRGB" filterUnits="userSpaceOnUse">
      <feFlood flood-opacity="0" result="BackgroundImageFix"/>
      <feBlend in="SourceGraphic" in2="BackgroundImageFix" result="shape"/>
      <feGaussianBlur result="effect1_foregroundBlur_1540_36652" stdDeviation="12"/>
    </filter>
  </defs>
</svg>
