<?xml version="1.0" encoding="UTF-8"?>
<svg width="180px" height="179px" viewBox="0 0 180 179" version="1.1" xmlns="http://www.w3.org/2000/svg" xmlns:xlink="http://www.w3.org/1999/xlink">
    <g id="main" stroke="none" stroke-width="1" fill-rule="evenodd">
        <path d="M78.7077325,-1.22568622e-13 C84.4541756,-1.22568622e-13 89.1125881,4.58389715 89.1125881,10.2384208 C89.1125881,15.8929445 84.4541756,20.8863785 78.7077325,20.8863785 C78.7040448,20.8863785 78.7003576,20.8863765 78.6966708,20.8863723 L78.7498237,21.2179214 C66.8116015,23.0710006 55.2215088,28.0996595 45.3029017,36.4223591 C16.2494985,60.8010589 12.5395514,104.211258 37.016503,133.381753 C61.4934546,162.552248 104.888381,166.436766 133.941784,142.058066 C162.995187,117.679366 166.705135,74.2691665 142.228183,45.0986716 C135.186607,36.7068478 126.579362,30.4077138 117.198318,26.2721542 L117.342844,25.9438172 C114.306669,24.0532354 112.263392,20.5580262 112.263392,16.7654141 C112.263392,11.1108904 116.805344,6.52699328 122.408126,6.52699328 C124.673931,6.52699328 126.766242,7.27666703 128.454822,8.54365111 C139.548619,13.9152223 149.718662,21.6677625 158.161247,31.7292433 C190.051688,69.734791 185.218086,126.292913 147.365094,158.055344 C109.512103,189.817775 52.9738799,184.756729 21.0834389,146.751182 C-10.8070021,108.745634 -5.97339989,52.1875123 31.8795916,20.4250811 C44.6517863,9.70793724 59.5512829,3.18312318 74.9134623,0.701629755 C76.0889005,0.248866405 77.3687811,-1.22568622e-13 78.7077325,-1.22568622e-13 Z" id="Combined-Shape"></path>
    </g>
</svg>