<?xml version="1.0" encoding="UTF-8"?>
<svg width="275px" height="274px" viewBox="0 0 275 274" version="1.1" xmlns="http://www.w3.org/2000/svg" xmlns:xlink="http://www.w3.org/1999/xlink">
    <g id="main" stroke="none" stroke-width="1" fill-rule="evenodd">
        <path d="M120.531821,-2.27373675e-13 C129.344875,-2.27373675e-13 136.489268,7.00807352 136.489268,15.6529703 C136.489268,24.2978671 129.344875,31.9320594 120.531821,31.9320594 L120.716,31.93 L120.779875,32.3294186 C102.489795,35.1943252 84.7253997,42.9198404 69.5134478,55.6841836 C24.9555843,93.0726704 19.1704132,159.535201 56.5919064,204.1324 C94.0133997,248.729599 160.470799,254.573414 205.028663,217.184928 C249.586526,179.796441 255.371697,113.333911 217.950204,68.7367116 C207.184524,55.9066739 194.015721,46.2840155 179.656571,39.9753798 L179.791257,39.6681681 C175.131206,36.7787057 171.994587,31.4327771 171.994587,25.6317389 C171.994587,16.9868421 178.960369,9.97876858 187.553098,9.97876858 C189.276383,9.97876858 190.934231,10.2606399 192.483576,10.7810559 L192.493199,10.7597639 L192.75733,10.8758878 C193.560558,11.1626405 194.333433,11.5138949 195.0698,11.9234595 C212.776275,20.1433718 229.005733,32.2866441 242.386009,48.2326366 C291.141587,106.337272 283.604225,192.92973 225.550839,241.642305 C167.497453,290.354879 80.9116794,282.74111 32.1561014,224.636475 C-16.5994767,166.531839 -9.06211412,79.9393814 48.9912719,31.2268067 C68.6533489,14.7283651 91.588394,4.69115413 115.218135,0.888457807 C116.880321,0.313175341 118.668786,-2.27373675e-13 120.531821,-2.27373675e-13 Z" id="Combined-Shape"></path>
    </g>
</svg>