<?xml version="1.0" encoding="UTF-8"?>
<svg width="345px" height="343px" viewBox="0 0 345 343" version="1.1" xmlns="http://www.w3.org/2000/svg" xmlns:xlink="http://www.w3.org/1999/xlink">
    <g id="main" stroke="none" stroke-width="1" fill-rule="evenodd">
        <path d="M151.028325,2.84217094e-14 C162.07402,2.84217094e-14 171.028325,8.7787304 171.028325,19.6078431 C171.028325,30.4369559 162.07402,40 151.028325,40 L151.302,39.997 L151.377122,40.4744384 C128.458128,44.0702097 106.196256,53.7556343 87.1309499,69.7533257 C31.2850943,116.613563 24.0139073,199.888909 70.8902991,255.754017 C117.766691,311.619125 201.039526,318.919016 256.885381,272.058779 C312.731237,225.198542 320.002424,141.923196 273.126032,86.0580879 C259.640094,69.9861726 243.141754,57.9338248 225.150723,50.0342658 L225.301057,49.6912708 C219.45996,46.071889 215.528325,39.3749442 215.528325,32.1078431 C215.528325,21.2787304 224.258773,12.5 235.028325,12.5 C237.189258,12.5 239.268093,12.8534425 241.210776,13.5059726 L241.246769,13.4252475 C264.686693,23.7173992 286.181837,39.4200551 303.752241,60.3596472 C364.826383,133.144975 355.352925,241.642453 282.592681,302.695546 C209.832438,363.74864 101.338232,354.237785 40.2640901,281.452458 C-20.8100516,208.66713 -11.336594,100.169652 61.4236498,39.1165584 C86.0871661,18.4214109 114.85653,5.8340923 144.493079,1.0706938 C146.541069,0.376836974 148.739809,2.84217094e-14 151.028325,2.84217094e-14 Z" id="Combined-Shape"></path>
    </g>
</svg>