<?xml version="1.0" encoding="UTF-8"?>
<svg width="273px" height="229px" viewBox="0 0 273 229" version="1.1" xmlns="http://www.w3.org/2000/svg" xmlns:xlink="http://www.w3.org/1999/xlink">
    <title>Combined Shape</title>
    <g id="main" fill-rule="evenodd">
        <path d="M225.417443,16.7226486 L226.772366,17.9344112 C253.14437,31.4889849 273,63.9736014 273,100.058167 C273,170.83199 215.46859,228.20551 144.5,228.20551 C113.468891,228.20551 85.0068192,217.236341 62.7999524,198.974054 C25.1923087,176.61767 0,135.652269 0,88.8190365 C0,18.0452132 76.3811189,106.293674 128.5,33.7067177 C159.25014,-9.11958668 198.445965,-6.86262159 225.417443,16.7226486 Z M128.5,34.4444086 C76.7867133,106.466486 1,18.9047836 1,89.1278378 C1,133.819735 24.1211922,173.126209 59.0854742,195.800108 C32.650266,172.328353 16,138.132363 16,100.058167 C16,29.2843437 92.3811189,117.532805 144.5,44.9458481 C168.766459,11.1494891 198.292528,5.42905261 222.919952,16.1101988 C196.232974,-5.88484038 158.354764,-7.13488877 128.5,34.4444086 Z" id="Combined-Shape"></path>
    </g>
</svg>