<?xml version="1.0" encoding="UTF-8"?>
<svg width="1371px" height="728px" viewBox="0 0 1371 728" version="1.1" xmlns="http://www.w3.org/2000/svg" xmlns:xlink="http://www.w3.org/1999/xlink">
    <title>Combined Shape</title>
    <g id="main" stroke="none" fill-rule="evenodd">
        <path d="M1371,0 L1371,728 L0,728 L0,0 L1371,0 Z M1282.91739,165.355196 C965.417391,-89.6448041 927.917391,117.855196 648.417391,79.3551959 C368.917391,40.8551959 460.216202,246.294531 411.917391,299.355196 C305.417391,416.355196 141.417391,118.355196 94.4173913,178.855196 C73.4283975,205.872943 61.0397637,291.52271 57.2514899,435.804496 C57.1941902,437.988214 57.1655177,440.172591 57.165534,442.357061 C57.166564,580.152106 168.872354,691.856226 306.667399,691.855196 L376.344355,691.855196 C473.147616,691.85415 561.213347,635.858634 602.277088,548.196553 C670.118001,403.382273 781.498103,380.601821 936.417391,479.855196 C1231.41739,668.855196 1386.67751,248.690097 1282.91739,165.355196 Z" id="Combined-Shape"></path>
    </g>
</svg>