<?xml version="1.0" encoding="UTF-8"?>
<svg width="1260px" height="658px" viewBox="0 0 1260 658" version="1.1" xmlns="http://www.w3.org/2000/svg" xmlns:xlink="http://www.w3.org/1999/xlink">
    <title>Rectangle</title>
    <g id="main" stroke-width="1" fill="none" fill-rule="evenodd">
        <path d="M38.4173913,144 C85.4173913,83.5 249.417391,381.5 355.917391,264.5 C404.216202,211.439335 312.917391,6 592.417391,44.5 C871.917391,83 909.417391,-124.5 1226.91739,130.5 C1330.67751,213.834901 1175.41739,634 880.417391,445 C725.498103,345.746625 614.118001,368.527078 546.277088,513.341357 C505.213347,601.003439 417.147616,656.998954 320.344355,657 L250.667399,657 C112.872354,657.00103 1.16656399,545.29691 1.16553402,407.501865 C1.16551769,405.317395 1.1941902,403.133018 1.25148993,400.9493 C5.03976374,256.667514 17.4283975,171.017747 38.4173913,144 Z" id="Rectangle"></path>
    </g>
</svg>